<svg version="1.1" id="Layer_1" xmlns="http://www.w3.org/2000/svg" xmlns:xlink="http://www.w3.org/1999/xlink" x="0px" y="0px"
     width="100%" viewBox="0 0 300 300" enable-background="new 0 0 300 300" xml:space="preserve">
<path fill="#FEFEFE" opacity="1.000000" stroke="none"
      d="
M301.000000,109.000000
	C301.000000,173.333328 301.000000,237.166641 301.000000,301.000000
	C251.000015,301.000000 201.000046,301.000000 151.000061,301.000000
	C101.000069,301.000000 51.000080,301.000000 1.000066,301.000000
	C1.000044,201.000046 1.000044,101.000092 1.000022,1.000106
	C100.999939,1.000071 200.999878,1.000071 300.999908,1.000035
	C301.000000,36.833332 301.000000,72.666664 301.000000,109.000000
M221.991867,239.312454
	C221.911423,238.875458 221.830978,238.438446 221.639267,237.415207
	C221.101883,236.607025 220.564484,235.798828 220.002670,234.318359
	C219.676819,233.542511 219.350967,232.766663 219.000931,231.315689
	C218.673477,230.536224 218.346024,229.756775 217.962585,228.388657
	C217.651016,227.921295 217.339432,227.453934 216.871689,226.195297
	C213.913849,225.912415 210.956024,225.629547 207.243561,225.126846
	C205.493759,224.869019 203.743958,224.611191 201.121002,224.179367
	C198.748199,224.127060 196.375412,224.074753 193.510880,223.392349
	C191.336807,223.374542 189.162735,223.356750 186.170700,223.167755
	C184.779449,223.115662 183.388199,223.063553 181.527466,222.385086
	C178.741302,222.388626 175.955154,222.392166 172.408112,222.271072
	C168.139771,221.742584 163.871429,221.214096 158.927567,220.601974
	C160.429245,224.465820 161.498459,227.216888 162.745041,230.472168
	C163.115814,231.067719 163.486588,231.663254 163.889130,232.612686
	C163.925140,232.854401 164.032059,233.059036 164.177475,233.974258
	C164.478592,234.649323 164.779709,235.324387 165.026367,236.655441
	C165.381485,237.435455 165.736603,238.215485 166.237961,239.731903
	C168.156677,240.478180 170.075394,241.224442 172.628387,242.121185
	C174.749481,242.399048 176.870575,242.676910 179.861725,243.078384
	C181.906937,243.039688 183.952133,243.001007 186.730057,243.085831
	C188.152985,243.376389 189.575912,243.666962 191.893021,244.073776
	C194.594864,244.037323 197.296707,244.000885 200.543091,244.248566
	C202.360352,244.487137 204.177612,244.725693 206.853424,245.076950
	C208.865189,245.122604 210.876968,245.168243 213.475998,245.817261
	C217.033234,245.817261 220.590485,245.817261 224.651794,245.817261
	C223.703979,243.716690 222.861328,241.849182 221.991867,239.312454
M160.117371,114.276299
	C159.715469,113.518631 159.313568,112.760963 159.043823,111.521851
	C158.684296,110.973183 158.324768,110.424515 158.057587,109.077354
	C157.684082,108.384384 157.310593,107.691406 157.080856,106.292252
	C156.656723,105.196167 156.232574,104.100082 155.711288,102.245766
	C154.399475,101.233994 153.198364,99.607704 151.751251,99.347008
	C149.256851,98.897644 146.609406,99.297874 143.289032,98.924034
	C138.202774,98.443306 133.116531,97.962578 127.127014,97.263275
	C121.089851,96.966789 115.052681,96.670296 108.176758,96.173264
	C104.800514,95.907516 101.424278,95.641769 97.187943,95.152489
	C92.887917,94.766113 88.587891,94.379738 83.278465,93.902664
	C84.470078,96.918442 85.274849,98.955185 86.041527,101.684258
	C86.716980,103.122269 87.392426,104.560280 87.994621,106.720917
	C88.698326,108.486092 89.402039,110.251266 90.061836,112.805115
	C90.999374,113.948730 91.806664,115.915787 92.897781,116.088364
	C96.873688,116.717194 100.944420,116.746490 105.823830,117.200172
	C110.543503,117.471672 115.263168,117.743164 120.770874,118.238655
	C123.177719,118.471222 125.584557,118.703796 128.848236,119.146278
	C130.896164,119.115196 132.944077,119.084106 135.742966,119.311546
	C137.826630,119.525520 139.910294,119.739494 142.806580,120.166885
	C144.748398,120.158630 146.690216,120.150375 149.213928,120.828362
	C153.411560,121.015343 157.609192,121.202324 163.004761,121.442665
	C161.749496,118.577621 160.951447,116.756157 160.117371,114.276299
M146.487381,189.312271
	C142.758835,189.312271 139.030289,189.312271 134.815338,189.312271
	C135.679688,191.451477 136.400101,193.234467 137.152557,195.697083
	C137.723953,196.888718 138.295334,198.080338 138.881851,199.883270
	C139.266418,200.585922 139.651001,201.288559 139.964264,202.754593
	C140.491699,204.170975 141.019150,205.587372 141.641785,207.369797
	C141.728699,207.613510 141.865967,207.824448 142.004318,208.784454
	C143.668762,209.515991 145.333191,210.247528 147.853989,211.175461
	C150.182022,211.244843 152.510056,211.314224 155.404419,211.969330
	C157.600800,211.981186 159.797180,211.993027 162.773483,212.228088
	C164.863724,212.378113 166.953949,212.528122 169.843216,213.084671
	C172.221527,213.074997 174.599838,213.065323 177.704529,213.353958
	C180.132706,213.559036 182.560883,213.764114 185.845001,214.166534
	C188.165863,214.262650 190.486710,214.358765 193.427811,214.997314
	C195.946793,215.009125 198.465759,215.020935 201.728378,215.301392
	C205.801620,215.646210 209.874847,215.991013 214.564011,216.387970
	C213.384796,213.591797 212.628922,211.799500 211.958588,209.379395
	C211.386047,208.555298 210.813507,207.731201 210.166611,206.166351
	C210.028824,205.441986 209.891052,204.717606 209.686646,203.338806
	C209.142532,202.190384 208.598434,201.041946 208.042191,199.315704
	C207.741043,198.859116 207.439896,198.402527 207.111206,197.159760
	C206.587082,192.974365 203.562439,194.148529 200.317505,193.908051
	C198.215027,193.735641 196.112534,193.563232 193.145874,193.175049
	C190.769073,193.118881 188.392273,193.062729 185.566879,192.392319
	C184.048172,192.389236 182.529465,192.386154 180.156097,192.172745
	C178.106339,192.115982 176.056595,192.059204 173.464233,191.376221
	C169.980026,191.352097 166.495819,191.327972 162.214005,191.077469
	C159.482117,190.841660 156.750244,190.605850 153.169540,190.146088
	C151.126572,190.079788 149.083603,190.013489 146.487381,189.312271
M120.721481,222.299286
	C119.865387,220.183685 119.009300,218.068069 118.098114,215.221802
	C117.147171,213.120880 116.196228,211.019958 115.157295,208.144836
	C114.377823,205.767776 113.598351,203.390701 112.707420,200.278519
	C109.589561,196.406937 105.376129,197.184128 100.415474,197.220810
	C101.441330,199.866196 102.241493,201.929565 102.992241,204.712357
	C103.871239,206.852188 104.750244,208.992004 105.796761,211.854797
	C106.742134,214.288635 107.687500,216.722473 108.784630,219.884796
	C109.540619,221.921234 110.296608,223.957687 111.108086,226.703430
	C111.943863,228.851517 112.779648,230.999603 113.789085,233.879364
	C114.799202,236.374466 115.809319,238.869553 116.849220,242.082108
	C117.748672,244.428741 118.648132,246.775391 119.740944,249.871689
	C121.008995,253.295517 122.277054,256.719360 123.735847,260.895355
	C125.081230,264.390930 126.426620,267.886505 127.804970,272.117218
	C128.811066,274.868835 129.817169,277.620483 130.878922,281.041229
	C132.465546,283.079102 134.052170,285.116974 135.951065,287.779633
	C138.633392,289.193573 141.315704,290.607483 144.676819,292.522400
	C149.034027,292.301453 153.736191,293.072235 157.691727,291.696442
	C181.005859,283.587494 204.126801,274.924835 227.360001,266.580078
	C232.580261,264.705109 237.460556,262.617859 240.787628,256.997223
	C241.811234,253.664688 242.834839,250.332169 244.031647,246.150101
	C243.350922,242.768021 242.670181,239.385925 241.941116,235.252960
	C240.639175,232.144867 239.337234,229.036789 238.028839,225.200790
	C237.301102,223.468475 236.573380,221.736160 235.970535,219.264542
	C234.993179,216.838806 234.015823,214.413055 233.010529,211.223648
	C231.965240,208.816681 230.919968,206.409714 230.000610,203.254196
	C229.243881,201.171555 228.487167,199.088928 227.611282,196.315582
	C226.752258,194.206711 225.893250,192.097839 225.004501,189.240067
	C224.014664,186.805801 223.024811,184.371552 222.026077,181.213333
	C221.298935,179.475845 220.571777,177.738373 219.916214,175.261169
	C218.671188,172.486908 217.426147,169.712646 216.087433,166.151398
	C215.068344,163.097382 214.049255,160.043350 212.958725,156.252029
	C211.987320,153.830322 211.015930,151.408600 210.015991,148.238602
	C209.026947,145.819382 208.037918,143.400177 207.021957,140.244232
	C206.356827,138.492920 205.691711,136.741608 204.958710,134.240982
	C201.546661,129.204727 196.458344,131.674026 191.170013,131.137100
	C186.780304,130.874268 182.390594,130.611435 177.088501,130.143921
	C172.409485,130.044220 167.730484,129.944519 162.542343,129.164490
	C158.694672,129.152969 154.846985,129.141449 150.202271,128.968460
	C145.801361,128.428574 141.400467,127.888702 136.096893,127.103546
	C131.448990,127.045929 126.801079,126.988312 121.650444,126.218018
	C112.560112,125.380768 103.469772,124.543526 93.965271,123.668129
	C95.734428,128.227097 97.255783,132.147507 98.891609,136.779648
	C99.625748,138.518906 100.359879,140.258179 101.036087,142.807526
	C101.484329,145.321289 102.878265,146.416580 105.520294,146.214447
	C108.333328,145.999252 111.170250,146.096283 114.712502,146.503250
	C118.808006,146.679214 122.903519,146.855179 127.795525,147.288376
	C131.863464,147.536011 135.931412,147.783646 140.826950,148.248032
	C145.550323,148.521378 150.273682,148.794724 155.706680,149.522263
	C160.418396,149.819595 165.130112,150.116943 170.614883,151.003204
	C174.283310,151.057373 177.951752,151.111526 182.224716,151.829300
	C188.022644,151.934296 193.820572,152.039307 199.979370,152.774963
	C201.278809,155.599380 202.578247,158.423782 203.904648,161.970901
	C204.844330,164.348450 205.784012,166.725998 206.850189,169.856339
	C207.830231,172.597275 208.810272,175.338196 209.912567,178.813232
	C210.902695,181.281906 211.892822,183.750595 212.941818,186.952301
	C213.811447,189.277740 214.681076,191.603195 215.763062,194.512604
	C216.401215,196.040680 217.039352,197.568756 217.825516,199.853622
	C218.843842,202.648224 219.862183,205.442825 220.937805,208.960098
	C221.912979,211.391663 222.888153,213.823242 223.890488,216.954697
	C224.616714,218.638275 225.342957,220.321854 226.003250,222.746124
	C226.923904,225.189072 227.844559,227.632034 228.869827,230.821289
	C229.942001,233.548782 231.014175,236.276260 232.048798,239.836044
	C232.401413,242.891159 232.754028,245.946274 232.802963,249.616074
	C230.317429,251.722748 228.163757,254.701050 225.292374,255.794327
	C206.968353,262.771240 188.539536,269.485291 170.031113,275.959595
	C162.232086,278.687744 154.155319,280.621887 146.049118,282.237793
	C144.014664,280.158051 141.980225,278.078339 140.047897,275.257233
	C139.002319,272.506134 137.956741,269.755066 136.979233,266.272980
	C135.741913,263.483734 134.504608,260.694489 133.190689,257.126038
	C131.874802,253.718582 130.558914,250.311111 129.166672,246.143875
	C128.166473,243.408035 127.166283,240.672195 126.118553,237.196198
	C125.062050,234.796494 124.005547,232.396790 123.092606,229.253525
	C122.334496,227.167313 121.576385,225.081100 120.721481,222.299286
M128.820602,88.087891
	C131.723343,88.459969 134.626068,88.832047 138.398560,89.315613
	C137.216919,86.855270 136.530411,85.425865 135.899933,83.337097
	C135.272781,82.218666 134.645630,81.100227 133.993820,79.243629
	C133.337860,77.493141 132.681900,75.742645 131.997604,73.276169
	C131.581024,72.184441 131.164459,71.092712 130.380188,69.357468
	C126.246246,68.691948 122.112297,68.026428 117.097572,67.196617
	C112.393661,66.914421 107.689751,66.632225 102.138779,66.185867
	C97.422012,65.865143 92.705254,65.544426 87.084251,65.046097
	C82.250259,64.653084 77.416275,64.260078 72.481682,63.858887
	C73.499596,66.406677 74.633995,69.246048 75.891891,72.764099
	C76.626114,74.173714 77.360336,75.583336 78.035660,77.731773
	C79.326134,79.899628 80.616608,82.067482 82.481850,84.852806
	C86.296303,84.980507 90.110764,85.108208 94.495186,85.836998
	C97.661591,85.879745 100.827995,85.922493 104.835556,86.084343
	C108.554985,86.378738 112.274406,86.673134 116.846588,87.079674
	C120.561157,87.378395 124.275719,87.677124 128.820602,88.087891
M39.011189,180.726135
	C39.900093,182.862396 40.788998,184.998657 41.806290,187.879410
	C42.825809,190.337753 43.845325,192.796097 44.919346,195.922348
	C45.849602,197.651901 46.779854,199.381439 47.845154,201.800110
	C49.142864,203.897995 50.440575,205.995865 51.896778,208.763092
	C53.173203,210.549225 54.449623,212.335342 55.877007,214.783173
	C57.325397,216.623245 58.773785,218.463318 60.480392,220.960617
	C62.606907,223.071045 64.733421,225.181473 67.131317,227.880661
	C69.055008,229.668121 70.978699,231.455582 73.176193,233.854385
	C75.407242,235.348083 77.638298,236.841797 80.140862,238.933197
	C82.339638,240.330032 84.538406,241.726868 87.092186,243.735367
	C90.394051,245.487091 93.695923,247.238831 97.590042,249.398178
	C102.562637,251.463760 107.535233,253.529358 112.507828,255.594940
	C112.801865,255.233490 113.095909,254.872040 113.389946,254.510605
	C111.884804,250.673996 110.379662,246.837402 108.939499,242.277908
	C107.477234,237.441620 102.573517,237.495605 98.642815,235.076004
	C96.791222,234.039291 94.939636,233.002579 92.776321,231.366882
	C90.525902,229.907608 88.275475,228.448334 85.729691,226.375641
	C83.258263,224.348999 80.786835,222.322342 78.022476,219.758301
	C76.408882,218.481308 74.795296,217.204315 73.077179,215.227173
	C71.398392,213.145233 69.719604,211.063278 67.927086,208.306549
	C66.392380,206.304306 64.857666,204.302048 63.127121,201.698242
	C62.034824,200.132950 60.942528,198.567642 59.916714,196.299973
	C58.838284,194.201462 57.759853,192.102966 56.554668,189.329544
	C55.379436,186.866547 54.204201,184.403564 53.022285,181.206635
	C52.356541,179.455139 51.690800,177.703629 51.029819,175.186340
	C50.376797,173.077835 49.723778,170.969345 49.083538,168.092499
	C48.700005,166.395447 48.316467,164.698410 48.061913,162.159683
	C47.810051,159.744949 47.558189,157.330215 47.504200,154.031265
	C47.334164,151.353973 47.164127,148.676682 47.393921,145.269791
	C47.560410,142.179214 47.726898,139.088654 48.133656,135.246277
	C48.715649,132.163834 49.297646,129.081390 50.122486,125.293602
	C51.024090,122.528076 51.925697,119.762558 53.071392,116.293282
	C54.131180,113.555275 55.190968,110.817268 56.819820,107.631744
	C56.803074,105.089516 56.786327,102.547279 56.649555,99.287346
	C55.326096,95.494987 54.002636,91.702629 52.307888,86.846344
	C49.303658,92.800964 46.729996,97.902161 43.840099,103.653748
	C42.946732,106.103371 42.053364,108.552994 40.833817,111.664352
	C39.955173,114.443314 39.076534,117.222282 37.984871,120.756088
	C37.389931,123.504753 36.794991,126.253426 36.011192,129.821014
	C35.719009,132.880768 35.426830,135.940536 34.954399,139.820404
	C34.714832,142.880371 34.475262,145.940338 34.082321,149.819550
	C34.427826,152.546021 34.773327,155.272476 34.967281,158.821213
	C35.346069,161.214966 35.724854,163.608719 35.978241,166.754318
	C36.381359,168.874130 36.784473,170.993958 37.103092,173.938141
	C37.759674,175.959244 38.416252,177.980347 39.011189,180.726135
M179.853302,95.845261
	C180.795776,98.260826 181.738235,100.676392 182.835419,103.869339
	C185.293488,112.656708 188.144287,114.411934 197.204514,112.390701
	C195.734009,108.564323 194.281067,104.783646 192.880798,100.264465
	C191.816345,97.512589 190.751892,94.760712 189.551437,91.323669
	C188.382507,88.547981 187.213577,85.772285 186.017578,82.235710
	C184.915588,79.159203 183.813583,76.082687 182.562469,72.310570
	C181.279404,68.878105 179.996338,65.445648 178.560089,61.317066
	C177.278229,57.882168 175.996368,54.447266 174.558975,50.321651
	C173.320709,47.215405 172.082443,44.109154 170.902344,40.272652
	C169.610107,37.179531 168.317871,34.086407 166.960175,30.278717
	C164.300522,27.207081 161.640869,24.135447 158.667099,20.408741
	C152.725159,16.953957 146.590668,16.035339 140.015030,18.613146
	C134.735794,20.682732 129.349014,22.478048 123.404579,24.033751
	C122.558952,22.690201 121.713326,21.346651 120.917648,19.259003
	C120.627174,18.487667 120.233536,17.738363 120.063309,16.941343
	C119.111298,12.483792 117.262291,11.640146 112.731041,13.590763
	C104.154907,17.282619 95.189972,20.081186 86.352570,23.153069
	C79.416374,25.564091 79.389412,25.510612 83.105301,33.187923
	C83.129021,35.145473 83.152733,37.103027 82.465027,39.331306
	C76.430481,41.702606 70.214165,43.703354 64.412460,46.549316
	C58.598732,49.401176 54.786755,54.210281 54.002605,61.898243
	C54.626221,66.008827 55.249840,70.119415 55.947216,74.961533
	C57.213634,78.337387 58.480053,81.713234 59.875244,85.845169
	C61.531979,89.990616 63.188709,94.136070 64.889580,99.029198
	C66.205765,102.448082 67.521950,105.866966 68.879631,110.022186
	C69.825272,112.714706 70.770912,115.407227 71.872620,118.840057
	C73.202232,122.314034 74.531853,125.788002 75.917084,129.972717
	C76.831131,132.347275 77.745178,134.721848 78.818169,137.843414
	C80.091080,141.262650 81.363991,144.681885 82.804489,148.849030
	C84.214264,152.566086 85.624046,156.283142 86.978531,160.756882
	C88.257187,163.959503 89.535843,167.162109 90.863678,171.111954
	C93.182320,178.493607 93.182320,178.493607 102.823448,179.080368
	C108.211136,179.403503 113.598816,179.726639 119.745872,180.345612
	C124.828377,180.601242 129.910889,180.856857 135.706711,181.568314
	C142.471207,182.043594 149.235687,182.518875 156.853088,183.200470
	C163.183762,183.640167 169.514420,184.079880 176.509384,185.028183
	C185.309799,185.695221 194.110214,186.362244 203.788666,187.095825
	C202.026428,182.530289 200.572144,178.762589 199.043991,174.262115
	C198.077103,171.839294 197.110214,169.416489 196.070114,166.160446
	C195.165466,165.508926 194.306137,164.384766 193.347839,164.292923
	C190.249649,163.996002 187.115082,164.078506 183.581955,163.417130
	C182.382202,163.426514 181.182434,163.435898 179.130066,163.242996
	C177.091705,163.272476 175.053345,163.301956 172.210892,163.055038
	C167.137177,162.711151 162.063461,162.367279 156.459488,161.378510
	C150.975555,161.070724 145.491623,160.762955 139.117569,160.214294
	C132.075073,159.820343 125.032570,159.426392 117.458359,158.381470
	C114.174080,158.275955 110.858727,158.414734 107.613564,158.001785
	C103.742805,157.509262 99.932198,156.544006 96.109306,155.029694
	C94.791306,151.666473 93.473297,148.303253 92.117729,144.166962
	C90.719406,140.779099 89.321075,137.391220 88.068352,133.238678
	C86.819672,129.935654 85.570984,126.632645 84.190369,122.633751
	C83.150520,120.044235 82.110672,117.454720 81.079826,114.105614
	C79.979836,111.073051 78.879852,108.040489 77.665520,104.293549
	C76.368774,100.864342 75.072029,97.435143 73.655205,93.291908
	C72.122566,89.492485 70.589928,85.693069 69.057686,81.130684
	C67.736526,77.742279 66.415375,74.353882 65.054382,70.151581
	C65.073441,66.838028 65.092499,63.524471 65.683159,59.815578
	C69.011009,57.601379 72.070450,54.686405 75.712135,53.291607
	C93.590752,46.443909 111.532516,39.731724 129.649734,33.551392
	C136.517746,31.208509 143.054428,26.880201 151.260056,28.788908
	C153.466721,30.930099 155.673386,33.071289 157.948700,35.928371
	C158.880447,38.309952 159.812180,40.691532 160.880524,43.826149
	C162.212341,47.292953 163.544144,50.759758 164.924759,54.970104
	C166.241913,58.387642 167.559052,61.805183 168.923004,65.964951
	C170.205872,69.342995 171.488739,72.721039 172.884705,76.851593
	C174.213394,80.315216 175.542084,83.778839 176.906204,87.964874
	C177.847687,90.345139 178.789169,92.725395 179.853302,95.845261
M244.313385,159.518219
	C244.157425,161.993423 244.001480,164.468643 243.280136,167.405167
	C242.625610,169.940857 241.971085,172.476547 241.041794,175.749374
	C240.324463,178.486313 239.607132,181.223236 238.304596,184.384399
	C237.837418,187.654480 237.370255,190.924561 236.949722,194.934814
	C238.419312,199.108246 239.888901,203.281677 241.700500,208.426392
	C244.745880,201.869690 247.483902,195.974731 250.795883,189.617447
	C251.578094,186.844391 252.360321,184.071350 253.763397,180.777023
	C254.445023,177.754303 255.126633,174.731567 256.008636,171.083206
	C256.305084,168.722046 256.601501,166.360870 257.140717,163.230621
	C257.388885,160.822189 257.637054,158.413757 258.062469,155.130096
	C258.012665,152.753418 257.962891,150.376724 258.079803,147.123627
	C257.996033,144.750320 257.912262,142.377014 257.985352,139.184692
	C257.607574,136.790207 257.229797,134.395706 256.982452,131.191055
	C256.550629,128.793915 256.118805,126.396774 255.578323,123.272690
	C254.723114,120.513336 253.867905,117.753975 252.996262,114.238388
	C252.224548,112.159988 251.452835,110.081589 250.557373,107.333611
	C249.377777,104.887390 248.198166,102.441170 246.945023,99.299782
	C245.657730,97.189240 244.370438,95.078697 242.992035,92.265015
	C241.346909,89.835449 239.701797,87.405884 237.962814,84.295921
	C236.607407,82.543953 235.251999,80.791985 233.664795,78.420418
	C232.059494,76.625114 230.454193,74.829811 228.613266,72.427734
	C226.287796,70.225372 223.962326,68.023010 221.274582,65.208076
	C218.516678,62.971252 215.758759,60.734428 212.414429,58.092609
	C210.267593,56.748802 208.120758,55.404995 205.620911,53.471424
	C202.474808,51.791359 199.328720,50.111298 195.622375,48.082191
	C191.302704,46.222317 186.983017,44.362438 182.663330,42.502563
	C182.360718,42.937965 182.058105,43.373371 181.755493,43.808773
	C183.184433,47.201218 184.613388,50.593658 185.995804,54.732750
	C186.549347,58.644676 189.074280,60.480732 193.096039,61.729843
	C195.665161,63.182056 198.234268,64.634270 201.111176,66.701599
	C203.312851,68.169807 205.514542,69.638008 208.057816,71.707199
	C210.669373,73.886108 213.280945,76.065018 216.161301,78.830589
	C217.827682,80.553635 219.494080,82.276672 221.259842,84.644760
	C222.791885,86.449928 224.323929,88.255096 226.093369,90.706184
	C227.851517,93.078636 229.609665,95.451088 231.636002,98.408218
	C232.665497,100.306564 233.695007,102.204918 234.875961,104.798759
	C236.102905,107.257011 237.329849,109.715263 238.738617,112.895622
	C239.507996,114.930550 240.277374,116.965477 240.986115,119.764229
	C241.697464,122.176743 242.408798,124.589256 243.007156,127.800652
	C243.401581,130.201920 243.796005,132.603180 244.086212,135.799332
	C244.441650,138.201019 244.797104,140.602722 245.009155,143.883362
	C245.063156,146.256042 245.117157,148.628738 245.014191,151.874100
	C244.976578,154.237350 244.938950,156.600586 244.313385,159.518219
z"/>
    <path fill="#1BB7E3" opacity="1.000000" stroke="none"
          d="
M124.009964,24.395073
	C129.349014,22.478048 134.735794,20.682732 140.015030,18.613146
	C146.590668,16.035339 152.725159,16.953957 158.821655,21.104370
	C157.789124,22.873116 156.653656,24.011452 155.401428,25.002220
	C153.955948,26.145893 152.407501,27.159437 150.903763,28.229485
	C143.054428,26.880201 136.517746,31.208509 129.649734,33.551392
	C111.532516,39.731724 93.590752,46.443909 75.712135,53.291607
	C72.070450,54.686405 69.011009,57.601379 65.167740,59.707489
	C61.151943,60.067730 57.651562,60.536060 54.151176,61.004395
	C54.786755,54.210281 58.598732,49.401176 64.412460,46.549316
	C70.214165,43.703354 76.430481,41.702606 83.239792,39.179794
	C86.122452,38.785229 88.361389,38.917835 90.316200,38.235931
	C100.264252,34.765732 110.161560,31.144897 120.014717,27.413317
	C121.512642,26.846024 122.686310,25.422539 124.009964,24.395073
z"/>
    <path fill="#0827FA" opacity="1.000000" stroke="none"
          d="
M240.144455,257.350616
	C237.460556,262.617859 232.580261,264.705109 227.360001,266.580078
	C204.126801,274.924835 181.005859,283.587494 157.691727,291.696442
	C153.736191,293.072235 149.034027,292.301453 144.375870,291.914551
	C146.349686,289.835449 148.449936,287.899536 150.927750,286.968933
	C166.141174,281.255280 181.431747,275.746307 196.712814,270.213867
	C209.655014,265.528198 222.599594,260.846771 235.602417,256.334381
	C236.963455,255.862061 239.455170,253.515854 240.144455,257.350616
z"/>
    <path fill="#132DF4" opacity="1.000000" stroke="none"
          d="
M240.466034,257.173920
	C239.455170,253.515854 236.963455,255.862061 235.602417,256.334381
	C222.599594,260.846771 209.655014,265.528198 196.712814,270.213867
	C181.431747,275.746307 166.141174,281.255280 150.927750,286.968933
	C148.449936,287.899536 146.349686,289.835449 144.036469,291.664062
	C141.315704,290.607483 138.633392,289.193573 136.144775,287.323608
	C139.627274,285.550690 142.916031,284.233826 146.204803,282.916962
	C154.155319,280.621887 162.232086,278.687744 170.031113,275.959595
	C188.539536,269.485291 206.968353,262.771240 225.292374,255.794327
	C228.163757,254.701050 230.317429,251.722748 233.351776,249.307007
	C237.219879,248.331833 240.539169,247.665741 243.858459,246.999634
	C242.834839,250.332169 241.811234,253.664688 240.466034,257.173920
z"/>
    <path fill="#0D1CFB" opacity="1.000000" stroke="none"
          d="
M183.994537,164.014801
	C187.115082,164.078506 190.249649,163.996002 193.347839,164.292923
	C194.306137,164.384766 195.165466,165.508926 195.705719,166.584473
	C184.748138,170.738983 174.107529,174.343048 163.594055,178.286148
	C160.858932,179.311981 158.520706,181.396103 156.000183,182.994156
	C149.235687,182.518875 142.471207,182.043594 135.400955,180.979279
	C136.258804,179.585800 137.318222,178.505005 138.602570,178.020782
	C148.470764,174.300140 158.415741,170.780960 168.250687,166.976395
	C170.040894,166.283875 171.436966,164.572479 173.014984,163.331421
	C175.053345,163.301956 177.091705,163.272476 179.648590,163.650116
	C181.442917,164.043076 182.718719,164.028931 183.994537,164.014801
z"/>
    <path fill="#1337F7" opacity="1.000000" stroke="none"
          d="
M102.010056,178.639511
	C93.182320,178.493607 93.182320,178.493607 91.004623,170.392853
	C91.926712,169.115753 92.632347,168.355530 93.500763,168.031250
	C101.647987,164.989105 109.823051,162.021545 117.990067,159.032425
	C125.032570,159.426392 132.075073,159.820343 139.547897,160.685699
	C138.565216,162.085297 137.264786,163.313187 135.720947,163.893082
	C125.627235,167.684494 115.450317,171.256287 105.387367,175.125488
	C104.014229,175.653488 103.123924,177.437210 102.010056,178.639511
z"/>
    <path fill="#82177F" opacity="1.000000" stroke="none"
          d="
M128.030273,97.481842
	C133.116531,97.962578 138.202774,98.443306 143.591476,99.468880
	C143.036728,100.689560 142.280579,101.635574 141.306808,101.999748
	C130.688248,105.970909 120.012474,109.790115 109.416573,113.819771
	C107.771988,114.445206 106.450371,115.919838 104.979408,117.001770
	C100.944420,116.746490 96.873688,116.717194 92.897781,116.088364
	C91.806664,115.915787 90.999374,113.948730 90.448463,112.361084
	C100.188408,108.578987 109.573311,105.325653 118.877495,101.855843
	C122.033257,100.678963 124.985191,98.955513 128.030273,97.481842
z"/>
    <path fill="#0E2BF8" opacity="1.000000" stroke="none"
          d="
M102.416756,178.859940
	C103.123924,177.437210 104.014229,175.653488 105.387367,175.125488
	C115.450317,171.256287 125.627235,167.684494 135.720947,163.893082
	C137.264786,163.313187 138.565216,162.085297 139.992950,160.806137
	C145.491623,160.762955 150.975555,161.070724 156.525269,161.977463
	C154.298096,164.033508 152.168839,165.917938 149.682556,166.870224
	C141.084641,170.163391 132.322220,173.026642 123.720238,176.309891
	C121.927658,176.994095 120.553490,178.774521 118.986496,180.049774
	C113.598816,179.726639 108.211136,179.403503 102.416756,178.859940
z"/>
    <path fill="#1228FA" opacity="1.000000" stroke="none"
          d="
M119.366180,180.197693
	C120.553490,178.774521 121.927658,176.994095 123.720238,176.309891
	C132.322220,173.026642 141.084641,170.163391 149.682556,166.870224
	C152.168839,165.917938 154.298096,164.033508 156.790390,162.299911
	C162.063461,162.367279 167.137177,162.711151 172.612946,163.193237
	C171.436966,164.572479 170.040894,166.283875 168.250687,166.976395
	C158.415741,170.780960 148.470764,174.300140 138.602570,178.020782
	C137.318222,178.505005 136.258804,179.585800 135.044296,180.751373
	C129.910889,180.856857 124.828377,180.601242 119.366180,180.197693
z"/>
    <path fill="#23CAE1" opacity="1.000000" stroke="none"
          d="
M83.110931,32.416924
	C79.389412,25.510612 79.416374,25.564091 86.352570,23.153069
	C95.189972,20.081186 104.154907,17.282619 112.731041,13.590763
	C117.262291,11.640146 119.111298,12.483792 120.063309,16.941343
	C120.233536,17.738363 120.627174,18.487667 120.499817,19.630583
	C117.719170,20.668636 115.318329,21.224447 113.000107,22.020763
	C103.023819,25.447649 93.071793,28.945143 83.110931,32.416924
z"/>
    <path fill="#0D14FC" opacity="1.000000" stroke="none"
          d="
M156.426636,183.097321
	C158.520706,181.396103 160.858932,179.311981 163.594055,178.286148
	C174.107529,174.343048 184.748138,170.738983 195.742340,167.001068
	C197.110214,169.416489 198.077103,171.839294 198.662033,174.629944
	C191.251663,177.332306 184.205673,179.617050 177.223358,182.082184
	C176.559799,182.316452 176.295013,183.680191 175.845093,184.519592
	C169.514420,184.079880 163.183762,183.640167 156.426636,183.097321
z"/>
    <path fill="#AE3550" opacity="1.000000" stroke="none"
          d="
M154.997055,149.068054
	C150.273682,148.794724 145.550323,148.521378 140.468933,147.783234
	C141.302567,146.530014 142.395935,145.472458 143.701416,144.995819
	C153.835342,141.295883 164.043076,137.795273 174.137222,133.992111
	C175.665726,133.416229 176.724716,131.594208 178.000885,130.348602
	C182.390594,130.611435 186.780304,130.874268 191.569626,131.594910
	C190.812790,133.035721 189.811905,134.435684 188.474838,134.934601
	C179.228958,138.384659 169.871094,141.537018 160.651535,145.053329
	C158.560486,145.850830 156.871246,147.701920 154.997055,149.068054
z"/>
    <path fill="#21C1E2" opacity="1.000000" stroke="none"
          d="
M83.108116,32.802422
	C93.071793,28.945143 103.023819,25.447649 113.000107,22.020763
	C115.318329,21.224447 117.719170,20.668636 120.474846,20.002632
	C121.713326,21.346651 122.558952,22.690201 123.707275,24.214413
	C122.686310,25.422539 121.512642,26.846024 120.014717,27.413317
	C110.161560,31.144897 100.264252,34.765732 90.316200,38.235931
	C88.361389,38.917835 86.122452,38.785229 83.595505,39.044426
	C83.152733,37.103027 83.129021,35.145473 83.108116,32.802422
z"/>
    <path fill="#A73558" opacity="1.000000" stroke="none"
          d="
M155.351868,149.295166
	C156.871246,147.701920 158.560486,145.850830 160.651535,145.053329
	C169.871094,141.537018 179.228958,138.384659 188.474838,134.934601
	C189.811905,134.435684 190.812790,133.035721 191.982040,131.699188
	C196.458344,131.674026 201.546661,129.204727 204.655334,134.761505
	C193.715240,139.190414 183.053558,143.033859 172.478043,147.101364
	C171.342545,147.538101 170.708481,149.278580 169.841827,150.414276
	C165.130112,150.116943 160.418396,149.819595 155.351868,149.295166
z"/>
    <path fill="#9E0F60" opacity="1.000000" stroke="none"
          d="
M105.401619,117.100967
	C106.450371,115.919838 107.771988,114.445206 109.416573,113.819771
	C120.012474,109.790115 130.688248,105.970909 141.306808,101.999748
	C142.280579,101.635574 143.036728,100.689560 143.960052,99.677658
	C146.609406,99.297874 149.256851,98.897644 151.751251,99.347008
	C153.198364,99.607704 154.399475,101.233994 155.404541,102.674149
	C144.751434,106.893562 134.375992,110.608810 124.089447,114.555733
	C122.510628,115.161522 121.341469,116.834984 119.982841,118.014664
	C115.263168,117.743164 110.543503,117.471672 105.401619,117.100967
z"/>
    <path fill="#C2363C" opacity="1.000000" stroke="none"
          d="
M113.996742,146.056976
	C111.170250,146.096283 108.333328,145.999252 105.520294,146.214447
	C102.878265,146.416580 101.484329,145.321289 101.462769,142.402374
	C112.807053,138.226181 123.746826,134.516403 134.606857,130.586273
	C135.657379,130.206100 136.213791,128.460556 136.999557,127.348824
	C141.400467,127.888702 145.801361,128.428574 150.534851,129.392151
	C149.810349,130.529404 148.844391,131.492310 147.681808,131.917053
	C138.364197,135.321152 128.967773,138.514023 119.697762,142.040421
	C117.592735,142.841202 115.886520,144.690369 113.996742,146.056976
z"/>
    <path fill="#B43347" opacity="1.000000" stroke="none"
          d="
M177.544693,130.246262
	C176.724716,131.594208 175.665726,133.416229 174.137222,133.992111
	C164.043076,137.795273 153.835342,141.295883 143.701416,144.995819
	C142.395935,145.472458 141.302567,146.530014 140.055145,147.674866
	C135.931412,147.783646 131.863464,147.536011 127.450157,146.806992
	C128.875580,145.223358 130.523254,143.792450 132.438232,143.075119
	C141.264145,139.768967 150.200394,136.755569 159.005020,133.395981
	C160.576675,132.796280 161.713745,131.057602 163.051468,129.844833
	C167.730484,129.944519 172.409485,130.044220 177.544693,130.246262
z"/>
    <path fill="#BB3340" opacity="1.000000" stroke="none"
          d="
M162.796906,129.504669
	C161.713745,131.057602 160.576675,132.796280 159.005020,133.395981
	C150.200394,136.755569 141.264145,139.768967 132.438232,143.075119
	C130.523254,143.792450 128.875580,145.223358 127.051910,146.678375
	C122.903519,146.855179 118.808006,146.679214 114.354622,146.280121
	C115.886520,144.690369 117.592735,142.841202 119.697762,142.040421
	C128.967773,138.514023 138.364197,135.321152 147.681808,131.917053
	C148.844391,131.492310 149.810349,130.529404 150.933365,129.472885
	C154.846985,129.141449 158.694672,129.152969 162.796906,129.504669
z"/>
    <path fill="#BB9977" opacity="1.000000" stroke="none"
          d="
M102.985840,66.350037
	C107.689751,66.632225 112.393661,66.914421 117.528366,67.627274
	C116.963257,69.001152 116.128677,70.365631 114.945137,70.818855
	C107.573631,73.641739 100.073357,76.130913 92.721451,79.001396
	C89.002426,80.453461 85.504807,82.472595 81.907082,84.235336
	C80.616608,82.067482 79.326134,79.899628 78.448318,77.357941
	C86.046700,74.432167 93.261261,71.956100 100.387245,69.247040
	C101.464821,68.837379 102.129936,67.342781 102.985840,66.350037
z"/>
    <path fill="#C93532" opacity="1.000000" stroke="none"
          d="
M136.548218,127.226181
	C136.213791,128.460556 135.657379,130.206100 134.606857,130.586273
	C123.746826,134.516403 112.807053,138.226181 101.491737,141.997345
	C100.359879,140.258179 99.625748,138.518906 99.233795,136.400314
	C107.101707,132.990891 114.627441,129.960800 122.153168,126.930710
	C126.801079,126.988312 131.448990,127.045929 136.548218,127.226181
z"/>
    <path fill="#6420A0" opacity="1.000000" stroke="none"
          d="
M127.578644,97.372559
	C124.985191,98.955513 122.033257,100.678963 118.877495,101.855843
	C109.573311,105.325653 100.188408,108.578987 90.470413,111.966743
	C89.402039,110.251266 88.698326,108.486092 88.411133,106.354218
	C94.749702,103.878822 100.713570,101.875870 106.555908,99.565582
	C107.628738,99.141350 108.208275,97.469673 109.015518,96.373795
	C115.052681,96.670296 121.089851,96.966789 127.578644,97.372559
z"/>
    <path fill="#9F325E" opacity="1.000000" stroke="none"
          d="
M170.228363,150.708740
	C170.708481,149.278580 171.342545,147.538101 172.478043,147.101364
	C183.053558,143.033859 193.715240,139.190414 204.689270,135.136169
	C205.691711,136.741608 206.356827,138.492920 206.694977,140.759277
	C198.118713,144.571426 189.869446,147.868561 181.620178,151.165695
	C177.951752,151.111526 174.283310,151.057373 170.228363,150.708740
z"/>
    <path fill="#ACA08F" opacity="1.000000" stroke="none"
          d="
M82.194466,84.544067
	C85.504807,82.472595 89.002426,80.453461 92.721451,79.001396
	C100.073357,76.130913 107.573631,73.641739 114.945137,70.818855
	C116.128677,70.365631 116.963257,69.001152 117.968750,67.709419
	C122.112297,68.026428 126.246246,68.691948 130.215973,69.730606
	C120.246338,73.724228 110.401375,77.243233 100.663391,81.036835
	C98.239861,81.980965 96.161972,83.812340 93.925217,85.235909
	C90.110764,85.108208 86.296303,84.980507 82.194466,84.544067
z"/>
    <path fill="#0D0CFD" opacity="1.000000" stroke="none"
          d="
M176.177246,184.773880
	C176.295013,183.680191 176.559799,182.316452 177.223358,182.082184
	C184.205673,179.617050 191.251663,177.332306 198.698975,174.996323
	C200.572144,178.762589 202.026428,182.530289 203.788666,187.095825
	C194.110214,186.362244 185.309799,185.695221 176.177246,184.773880
z"/>
    <path fill="#1B46F6" opacity="1.000000" stroke="none"
          d="
M117.724213,158.706940
	C109.823051,162.021545 101.647987,164.989105 93.500763,168.031250
	C92.632347,168.355530 91.926712,169.115753 90.980026,170.019226
	C89.535843,167.162109 88.257187,163.959503 87.404617,160.378189
	C90.585648,158.594177 93.340584,157.188858 96.095520,155.783539
	C99.932198,156.544006 103.742805,157.509262 107.613564,158.001785
	C110.858727,158.414734 114.174080,158.275955 117.724213,158.706940
z"/>
    <path fill="#D43B2E" opacity="1.000000" stroke="none"
          d="
M121.901810,126.574364
	C114.627441,129.960800 107.101707,132.990891 99.176559,136.044449
	C97.255783,132.147507 95.734428,128.227097 93.965271,123.668129
	C103.469772,124.543526 112.560112,125.380768 121.901810,126.574364
z"/>
    <path fill="#9EA3A1" opacity="1.000000" stroke="none"
          d="
M94.210205,85.536453
	C96.161972,83.812340 98.239861,81.980965 100.663391,81.036835
	C110.401375,77.243233 120.246338,73.724228 130.399826,70.052361
	C131.164459,71.092712 131.581024,72.184441 131.680206,73.779785
	C123.464233,77.263824 115.543617,80.188194 107.687965,83.277725
	C106.316566,83.817062 105.218636,85.051720 103.994400,85.965240
	C100.827995,85.922493 97.661591,85.879745 94.210205,85.536453
z"/>
    <path fill="#973266" opacity="1.000000" stroke="none"
          d="
M181.922455,151.497498
	C189.869446,147.868561 198.118713,144.571426 206.708435,141.127625
	C208.037918,143.400177 209.026947,145.819382 209.632507,148.616943
	C206.038849,150.044968 202.828674,151.094635 199.618500,152.144287
	C193.820572,152.039307 188.022644,151.934296 181.922455,151.497498
z"/>
    <path fill="#851377" opacity="1.000000" stroke="none"
          d="
M154.838089,211.383606
	C152.510056,211.314224 150.182022,211.244843 147.485229,210.724243
	C148.628601,209.398300 150.054001,208.292969 151.666946,207.686279
	C162.028809,203.788879 172.454956,200.061264 182.791595,196.099457
	C184.073105,195.608276 184.950699,194.063248 186.015472,193.006561
	C188.392273,193.062729 190.769073,193.118881 193.559647,193.634094
	C193.363007,194.756516 192.876770,195.746643 192.123093,196.033020
	C184.081512,199.088577 175.936478,201.879578 167.949081,205.067062
	C163.454315,206.860764 159.200470,209.258179 154.838089,211.383606
z"/>
    <path fill="#CF935B" opacity="1.000000" stroke="none"
          d="
M102.562309,66.267944
	C102.129936,67.342781 101.464821,68.837379 100.387245,69.247040
	C93.261261,71.956100 86.046700,74.432167 78.477768,76.988533
	C77.360336,75.583336 76.626114,74.173714 76.214752,72.367630
	C78.502045,71.219719 80.615639,70.716835 82.391541,69.651184
	C84.414391,68.437340 86.135963,66.721413 87.988487,65.223709
	C92.705254,65.544426 97.422012,65.865143 102.562309,66.267944
z"/>
    <path fill="#ACA08F" opacity="1.000000" stroke="none"
          d="
M207.998184,225.346680
	C210.956024,225.629547 213.913849,225.912415 216.620468,226.736053
	C206.935425,230.802139 197.452393,234.203674 188.094910,237.921158
	C184.898422,239.191071 182.017029,241.254120 178.991669,242.954773
	C176.870575,242.676910 174.749481,242.399048 172.372681,241.694275
	C173.148697,240.533569 174.080841,239.525146 175.227844,239.109192
	C184.819870,235.630753 194.482193,232.343689 204.039673,228.774872
	C205.572189,228.202637 206.689133,226.517395 207.998184,225.346680
z"/>
    <path fill="#93136C" opacity="1.000000" stroke="none"
          d="
M155.121246,211.676468
	C159.200470,209.258179 163.454315,206.860764 167.949081,205.067062
	C175.936478,201.879578 184.081512,199.088577 192.123093,196.033020
	C192.876770,195.746643 193.363007,194.756516 193.991730,193.741989
	C196.112534,193.563232 198.215027,193.735641 200.603867,194.446564
	C199.462601,195.982147 198.166458,197.336258 196.585983,197.918289
	C186.400757,201.669022 176.130630,205.189468 165.951401,208.955856
	C164.460220,209.507614 163.304504,210.966003 161.993561,212.004883
	C159.797180,211.993027 157.600800,211.981186 155.121246,211.676468
z"/>
    <path fill="#9E0F60" opacity="1.000000" stroke="none"
          d="
M162.383514,212.116486
	C163.304504,210.966003 164.460220,209.507614 165.951401,208.955856
	C176.130630,205.189468 186.400757,201.669022 196.585983,197.918289
	C198.166458,197.336258 199.462601,195.982147 200.949615,194.648926
	C203.562439,194.148529 206.587082,192.974365 206.725876,197.573273
	C195.663406,201.767487 184.962753,205.484192 174.330856,209.388077
	C172.423157,210.088562 170.799179,211.561737 169.044189,212.678131
	C166.953949,212.528122 164.863724,212.378113 162.383514,212.116486
z"/>
    <path fill="#90A8B6" opacity="1.000000" stroke="none"
          d="
M104.414978,86.024796
	C105.218636,85.051720 106.316566,83.817062 107.687965,83.277725
	C115.543617,80.188194 123.464233,77.263824 131.694366,74.137787
	C132.681900,75.742645 133.337860,77.493141 133.601288,79.618492
	C128.645096,81.347084 124.037148,82.573158 119.544754,84.132248
	C118.195618,84.600471 117.168480,85.996529 115.993835,86.967529
	C112.274406,86.673134 108.554985,86.378738 104.414978,86.024796
z"/>
    <path fill="#E8071B" opacity="1.000000" stroke="none"
          d="
M96.997787,248.990555
	C93.695923,247.238831 90.394051,245.487091 87.248466,243.277161
	C89.276733,241.834824 91.223442,240.968048 93.001442,239.836258
	C95.135086,238.478073 97.124954,236.894012 99.177078,235.407761
	C102.573517,237.495605 107.477234,237.441620 108.528198,242.646729
	C104.228279,244.668045 99.128654,244.066971 96.997787,248.990555
z"/>
    <path fill="#3624C9" opacity="1.000000" stroke="none"
          d="
M196.182617,48.431232
	C199.328720,50.111298 202.474808,51.791359 205.638611,54.074661
	C201.347198,56.827641 197.038116,58.977383 192.729019,61.127125
	C189.074280,60.480732 186.549347,58.644676 186.340332,54.211624
	C189.850784,51.937412 193.016693,50.184322 196.182617,48.431232
z"/>
    <path fill="#B00C4D" opacity="1.000000" stroke="none"
          d="
M120.376862,118.126663
	C121.341469,116.834984 122.510628,115.161522 124.089447,114.555733
	C134.375992,110.608810 144.751434,106.893562 155.453125,103.053268
	C156.232574,104.100082 156.656723,105.196167 156.622864,106.652916
	C147.521027,110.031349 138.855667,112.990608 130.263199,116.148186
	C129.295135,116.503937 128.738708,117.979881 127.991409,118.936363
	C125.584557,118.703796 123.177719,118.471222 120.376862,118.126663
z"/>
    <path fill="#124CF4" opacity="1.000000" stroke="none"
          d="
M96.102417,155.406616
	C93.340584,157.188858 90.585648,158.594177 87.432266,159.999847
	C85.624046,156.283142 84.214264,152.566086 83.112389,148.423401
	C86.331955,146.978516 89.243622,145.959274 92.155289,144.940033
	C93.473297,148.303253 94.791306,151.666473 96.102417,155.406616
z"/>
    <path fill="#631E9F" opacity="1.000000" stroke="none"
          d="
M141.546585,207.003754
	C141.019150,205.587372 140.491699,204.170975 140.366455,202.333588
	C147.198227,199.438644 153.665741,197.055878 160.024185,194.410934
	C161.240387,193.905045 162.026871,192.366150 163.011612,191.303833
	C166.495819,191.327972 169.980026,191.352097 173.575348,191.998016
	C172.146469,193.559830 170.706940,194.765762 169.048492,195.392181
	C163.016891,197.670441 156.841904,199.580231 150.862762,201.981903
	C147.609833,203.288544 144.642654,205.306580 141.546585,207.003754
z"/>
    <path fill="#B59D83" opacity="1.000000" stroke="none"
          d="
M207.620880,225.236755
	C206.689133,226.517395 205.572189,228.202637 204.039673,228.774872
	C194.482193,232.343689 184.819870,235.630753 175.227844,239.109192
	C174.080841,239.525146 173.148697,240.533569 172.055542,241.619019
	C170.075394,241.224442 168.156677,240.478180 166.542328,239.358765
	C177.865311,235.040405 188.899841,231.138168 199.873535,227.071671
	C200.790298,226.731964 201.296967,225.285599 201.994171,224.353378
	C203.743958,224.611191 205.493759,224.869019 207.620880,225.236755
z"/>
    <path fill="#7D1A86" opacity="1.000000" stroke="none"
          d="
M185.791168,192.699432
	C184.950699,194.063248 184.073105,195.608276 182.791595,196.099457
	C172.454956,200.061264 162.028809,203.788879 151.666946,207.686279
	C150.054001,208.292969 148.628601,209.398300 147.057037,210.626068
	C145.333191,210.247528 143.668762,209.515991 142.399536,208.348938
	C154.526398,203.653656 166.273605,199.435547 177.965912,195.070450
	C179.150208,194.628296 180.003723,193.300095 181.010742,192.383057
	C182.529465,192.386154 184.048172,192.389236 185.791168,192.699432
z"/>
    <path fill="#4E1DAF" opacity="1.000000" stroke="none"
          d="
M35.134644,139.000275
	C35.426830,135.940536 35.719009,132.880768 36.508171,129.410675
	C41.296650,127.999870 45.588142,126.999413 49.879639,125.998955
	C49.297646,129.081390 48.715649,132.163834 47.629280,135.630676
	C43.128155,137.010147 39.131401,138.005219 35.134644,139.000275
z"/>
    <path fill="#E8071B" opacity="1.000000" stroke="none"
          d="
M236.903076,194.194641
	C237.370255,190.924561 237.837418,187.654480 238.994339,184.177521
	C242.764572,182.991699 245.810196,181.870758 248.942215,181.101746
	C250.247559,180.781250 251.736877,181.210159 253.142548,181.298294
	C252.360321,184.071350 251.578094,186.844391 250.081360,189.826569
	C245.212234,191.422012 241.057648,192.808319 236.903076,194.194641
z"/>
    <path fill="#5A1CA4" opacity="1.000000" stroke="none"
          d="
M35.044521,139.410339
	C39.131401,138.005219 43.128155,137.010147 47.509148,136.006577
	C47.726898,139.088654 47.560410,142.179214 46.803398,145.641586
	C42.220478,147.009018 38.228085,148.004654 34.235695,149.000305
	C34.475262,145.940338 34.714832,142.880371 35.044521,139.410339
z"/>
    <path fill="#5421AE" opacity="1.000000" stroke="none"
          d="
M215.892517,78.243927
	C213.280945,76.065018 210.669373,73.886108 208.272003,71.349533
	C212.869751,69.268135 217.253311,67.544395 221.636856,65.820656
	C223.962326,68.023010 226.287796,70.225372 228.344147,72.721451
	C224.014175,74.758080 219.953354,76.500999 215.892517,78.243927
z"/>
    <path fill="#19A0E7" opacity="1.000000" stroke="none"
          d="
M65.094223,70.965469
	C66.415375,74.353882 67.736526,77.742279 68.826172,81.802872
	C65.645264,83.346405 62.695869,84.217743 59.746475,85.089088
	C58.480053,81.713234 57.213634,78.337387 56.126183,74.290672
	C59.234840,72.735031 62.164532,71.850250 65.094223,70.965469
z"/>
    <path fill="#1892E9" opacity="1.000000" stroke="none"
          d="
M59.810860,85.467133
	C62.695869,84.217743 65.645264,83.346405 68.825974,82.184357
	C70.589928,85.693069 72.122566,89.492485 73.347046,93.656693
	C70.307739,95.441490 67.576591,96.861504 64.845444,98.281517
	C63.188709,94.136070 61.531979,89.990616 59.810860,85.467133
z"/>
    <path fill="#1880EC" opacity="1.000000" stroke="none"
          d="
M172.771606,76.099083
	C171.488739,72.721039 170.205872,69.342995 169.118103,65.289665
	C172.446548,63.747322 175.579910,62.880260 178.713257,62.013195
	C179.996338,65.445648 181.279404,68.878105 182.267944,72.668045
	C178.906143,74.050041 175.838867,75.074562 172.771606,76.099083
z"/>
    <path fill="#AD0E52" opacity="1.000000" stroke="none"
          d="
M169.443710,212.881409
	C170.799179,211.561737 172.423157,210.088562 174.330856,209.388077
	C184.962753,205.484192 195.663406,201.767487 206.739639,197.966339
	C207.439896,198.402527 207.741043,198.859116 207.826050,199.894897
	C198.757019,203.686096 189.881287,206.837646 181.073181,210.168076
	C179.560486,210.740051 178.335861,212.073822 176.978149,213.055664
	C174.599838,213.065323 172.221527,213.074997 169.443710,212.881409
z"/>
    <path fill="#DE0A25" opacity="1.000000" stroke="none"
          d="
M98.909943,235.241882
	C97.124954,236.894012 95.135086,238.478073 93.001442,239.836258
	C91.223442,240.968048 89.276733,241.834824 87.070969,242.971344
	C84.538406,241.726868 82.339638,240.330032 80.077454,238.258484
	C84.372047,235.711121 88.730049,233.838501 93.088051,231.965866
	C94.939636,233.002579 96.791222,234.039291 98.909943,235.241882
z"/>
    <path fill="#188DEA" opacity="1.000000" stroke="none"
          d="
M178.636673,61.665131
	C175.579910,62.880260 172.446548,63.747322 169.094696,64.918549
	C167.559052,61.805183 166.241913,58.387642 165.107040,54.286240
	C168.431061,52.739037 171.572784,51.875698 174.714523,51.012360
	C175.996368,54.447266 177.278229,57.882168 178.636673,61.665131
z"/>
    <path fill="#441FB9" opacity="1.000000" stroke="none"
          d="
M50.001060,125.646278
	C45.588142,126.999413 41.296650,127.999870 36.602600,129.001221
	C36.794991,126.253426 37.389931,123.504753 38.489861,120.378006
	C43.605667,118.998962 48.216484,117.998001 52.827301,116.997040
	C51.925697,119.762558 51.024090,122.528076 50.001060,125.646278
z"/>
    <path fill="#19ACE4" opacity="1.000000" stroke="none"
          d="
M65.074303,70.558525
	C62.164532,71.850250 59.234840,72.735031 56.089302,73.924911
	C55.249840,70.119415 54.626221,66.008827 54.076889,61.451317
	C57.651562,60.536060 61.151943,60.067730 64.881943,59.905159
	C65.092499,63.524471 65.073441,66.838028 65.074303,70.558525
z"/>
    <path fill="#4921B8" opacity="1.000000" stroke="none"
          d="
M221.455719,65.514366
	C217.253311,67.544395 212.869751,69.268135 208.101212,71.049042
	C205.514542,69.638008 203.312851,68.169807 201.289566,66.239487
	C204.153976,64.516922 206.934387,63.418526 209.488007,61.930809
	C210.860001,61.131508 211.842575,59.663746 213.000854,58.497604
	C215.758759,60.734428 218.516678,62.971252 221.455719,65.514366
z"/>
    <path fill="#3B21C3" opacity="1.000000" stroke="none"
          d="
M52.949348,116.645157
	C48.216484,117.998001 43.605667,118.998962 38.596375,120.000587
	C39.076534,117.222282 39.955173,114.443314 41.409332,111.332855
	C46.740150,110.027328 51.495449,109.053291 56.250755,108.079262
	C55.190968,110.817268 54.131180,113.555275 52.949348,116.645157
z"/>
    <path fill="#1685EB" opacity="1.000000" stroke="none"
          d="
M64.867508,98.655357
	C67.576591,96.861504 70.307739,95.441490 73.407082,94.013702
	C75.072029,97.435143 76.368774,100.864342 77.370575,104.700241
	C74.329803,106.499908 71.583969,107.892876 68.838135,109.285851
	C67.521950,105.866966 66.205765,102.448082 64.867508,98.655357
z"/>
    <path fill="#4023C0" opacity="1.000000" stroke="none"
          d="
M212.707642,58.295105
	C211.842575,59.663746 210.860001,61.131508 209.488007,61.930809
	C206.934387,63.418526 204.153976,64.516922 201.135681,65.931931
	C198.234268,64.634270 195.665161,63.182056 192.912537,61.428482
	C197.038116,58.977383 201.347198,56.827641 205.815109,54.369545
	C208.120758,55.404995 210.267593,56.748802 212.707642,58.295105
z"/>
    <path fill="#1359F2" opacity="1.000000" stroke="none"
          d="
M192.828125,101.002975
	C194.281067,104.783646 195.734009,108.564323 197.204514,112.390701
	C188.144287,114.411934 185.293488,112.656708 183.158905,103.424942
	C186.597641,102.321358 189.712875,101.662163 192.828125,101.002975
z"/>
    <path fill="#1359F2" opacity="1.000000" stroke="none"
          d="
M92.136505,144.553497
	C89.243622,145.959274 86.331955,146.978516 83.028595,148.049438
	C81.363991,144.681885 80.091080,141.262650 79.128624,137.417953
	C82.266968,135.996109 85.094864,134.999741 87.922752,134.003357
	C89.321075,137.391220 90.719406,140.779099 92.136505,144.553497
z"/>
    <path fill="#701B90" opacity="1.000000" stroke="none"
          d="
M180.583420,192.277893
	C180.003723,193.300095 179.150208,194.628296 177.965912,195.070450
	C166.273605,199.435547 154.526398,203.653656 142.424164,207.958023
	C141.865967,207.824448 141.728699,207.613510 141.594177,207.186768
	C144.642654,205.306580 147.609833,203.288544 150.862762,201.981903
	C156.841904,199.580231 163.016891,197.670441 169.048492,195.392181
	C170.706940,194.765762 172.146469,193.559830 173.846649,192.311127
	C176.056595,192.059204 178.106339,192.115982 180.583420,192.277893
z"/>
    <path fill="#BB9977" opacity="1.000000" stroke="none"
          d="
M201.557587,224.266388
	C201.296967,225.285599 200.790298,226.731964 199.873535,227.071671
	C188.899841,231.138168 177.865311,235.040405 166.469208,238.990555
	C165.736603,238.215485 165.381485,237.435455 165.438522,236.320618
	C174.339584,233.005814 182.853622,230.093613 191.287125,226.964325
	C192.402573,226.550446 193.107544,225.030273 194.002625,224.022461
	C196.375412,224.074753 198.748199,224.127060 201.557587,224.266388
z"/>
    <path fill="#1B2AE7" opacity="1.000000" stroke="none"
          d="
M243.945053,246.574875
	C240.539169,247.665741 237.219879,248.331833 233.503616,248.999664
	C232.754028,245.946274 232.401413,242.891159 232.428970,239.375183
	C235.869247,237.944168 238.929352,236.974014 241.989441,236.003845
	C242.670181,239.385925 243.350922,242.768021 243.945053,246.574875
z"/>
    <path fill="#DE0A25" opacity="1.000000" stroke="none"
          d="
M253.452972,181.037659
	C251.736877,181.210159 250.247559,180.781250 248.942215,181.101746
	C245.810196,181.870758 242.764572,182.991699 239.286957,183.965393
	C239.607132,181.223236 240.324463,178.486313 241.563736,175.377228
	C246.659866,173.906342 251.234070,172.807587 255.808258,171.708847
	C255.126633,174.731567 254.445023,177.754303 253.452972,181.037659
z"/>
    <path fill="#3B2BC3" opacity="1.000000" stroke="none"
          d="
M129.243027,246.903656
	C130.558914,250.311111 131.874802,253.718582 132.806213,257.541992
	C129.462875,258.686371 126.503990,259.414795 123.545105,260.143188
	C122.277054,256.719360 121.008995,253.295517 120.070114,249.461884
	C123.347198,248.335953 126.295113,247.619797 129.243027,246.903656
z"/>
    <path fill="#491CB3" opacity="1.000000" stroke="none"
          d="
M108.596130,96.273529
	C108.208275,97.469673 107.628738,99.141350 106.555908,99.565582
	C100.713570,101.875870 94.749702,103.878822 88.447754,105.992905
	C87.392426,104.560280 86.716980,103.122269 86.443924,101.329697
	C90.580223,99.108757 94.314125,97.242378 98.048035,95.376007
	C101.424278,95.641769 104.800514,95.907516 108.596130,96.273529
z"/>
    <path fill="#3624C9" opacity="1.000000" stroke="none"
          d="
M56.535286,107.855499
	C51.495449,109.053291 46.740150,110.027328 41.572426,111.001984
	C42.053364,108.552994 42.946732,106.103371 44.383266,103.318420
	C48.874149,101.990410 52.821865,100.997726 56.769581,100.005051
	C56.786327,102.547279 56.803074,105.089516 56.535286,107.855499
z"/>
    <path fill="#F10712" opacity="1.000000" stroke="none"
          d="
M236.926392,194.564728
	C241.057648,192.808319 245.212234,191.422012 249.794373,190.057739
	C247.483902,195.974731 244.745880,201.869690 241.700500,208.426392
	C239.888901,203.281677 238.419312,199.108246 236.926392,194.564728
z"/>
    <path fill="#5E1EA3" opacity="1.000000" stroke="none"
          d="
M216.026917,78.537262
	C219.953354,76.500999 224.014175,74.758080 228.461945,73.024841
	C230.454193,74.829811 232.059494,76.625114 233.457947,78.875702
	C229.220901,80.887230 225.190674,82.443474 221.160461,83.999710
	C219.494080,82.276672 217.827682,80.553635 216.026917,78.537262
z"/>
    <path fill="#1DAEE5" opacity="1.000000" stroke="none"
          d="
M151.081909,28.509197
	C152.407501,27.159437 153.955948,26.145893 155.401428,25.002220
	C156.653656,24.011452 157.789124,22.873116 158.978699,21.431906
	C161.640869,24.135447 164.300522,27.207081 166.623840,30.676174
	C163.485016,32.453251 160.682526,33.832870 157.880035,35.212486
	C155.673386,33.071289 153.466721,30.930099 151.081909,28.509197
z"/>
    <path fill="#D40A2E" opacity="1.000000" stroke="none"
          d="
M92.932190,231.666382
	C88.730049,233.838501 84.372047,235.711121 79.941696,237.959625
	C77.638298,236.841797 75.407242,235.348083 73.108154,233.180328
	C77.368423,230.667191 81.696732,228.828140 86.025047,226.989075
	C88.275475,228.448334 90.525902,229.907608 92.932190,231.666382
z"/>
    <path fill="#661A99" opacity="1.000000" stroke="none"
          d="
M34.159004,149.409912
	C38.228085,148.004654 42.220478,147.009018 46.603481,146.006378
	C47.164127,148.676682 47.334164,151.353973 46.999187,154.500244
	C42.702393,155.979141 38.910610,156.989044 35.118828,157.998947
	C34.773327,155.272476 34.427826,152.546021 34.159004,149.409912
z"/>
    <path fill="#7A1885" opacity="1.000000" stroke="none"
          d="
M243.083145,92.968147
	C244.370438,95.078697 245.657730,97.189240 246.611969,99.687424
	C242.427460,101.417793 238.575974,102.760529 234.724503,104.103256
	C233.695007,102.204918 232.665497,100.306564 231.747894,97.746384
	C235.600922,95.712418 239.342026,94.340279 243.083145,92.968147
z"/>
    <path fill="#A1A29C" opacity="1.000000" stroke="none"
          d="
M179.426697,243.016571
	C182.017029,241.254120 184.898422,239.191071 188.094910,237.921158
	C197.452393,234.203674 206.935425,230.802139 216.698547,227.131683
	C217.339432,227.453934 217.651016,227.921295 217.782593,228.965332
	C210.425842,232.312332 203.203568,234.972137 196.091858,237.900391
	C192.620743,239.329636 189.355682,241.259216 185.997345,242.962311
	C183.952133,243.001007 181.906937,243.039688 179.426697,243.016571
z"/>
    <path fill="#1674EE" opacity="1.000000" stroke="none"
          d="
M172.828156,76.475342
	C175.838867,75.074562 178.906143,74.050041 182.342499,73.015854
	C183.813583,76.082687 184.915588,79.159203 185.656891,82.655594
	C182.487747,84.464470 179.679260,85.853470 176.870773,87.242462
	C175.542084,83.778839 174.213394,80.315216 172.828156,76.475342
z"/>
    <path fill="#B70C47" opacity="1.000000" stroke="none"
          d="
M177.341339,213.204803
	C178.335861,212.073822 179.560486,210.740051 181.073181,210.168076
	C189.881287,206.837646 198.757019,203.686096 207.832108,200.183807
	C208.598434,201.041946 209.142532,202.190384 209.332703,203.670013
	C201.676743,206.489853 194.355209,208.924286 187.098068,211.537506
	C186.217392,211.854630 185.683624,213.135162 184.989075,213.969208
	C182.560883,213.764114 180.132706,213.559036 177.341339,213.204803
z"/>
    <path fill="#1A99E8" opacity="1.000000" stroke="none"
          d="
M174.636749,50.667007
	C171.572784,51.875698 168.431061,52.739037 165.082642,53.914471
	C163.544144,50.759758 162.212341,47.292953 161.221039,43.424400
	C164.655777,42.349400 167.749969,41.676155 170.844177,41.002907
	C172.082443,44.109154 173.320709,47.215405 174.636749,50.667007
z"/>
    <path fill="#701B90" opacity="1.000000" stroke="none"
          d="
M243.037598,92.616577
	C239.342026,94.340279 235.600922,95.712418 231.613815,97.454041
	C229.609665,95.451088 227.851517,93.078636 226.313965,90.238014
	C230.375259,88.171997 234.215958,86.574150 238.056671,84.976318
	C239.701797,87.405884 241.346909,89.835449 243.037598,92.616577
z"/>
    <path fill="#2E2AD2" opacity="1.000000" stroke="none"
          d="
M123.640472,260.519287
	C126.503990,259.414795 129.462875,258.686371 132.844528,257.931610
	C134.504608,260.694489 135.741913,263.483734 136.585251,266.680145
	C133.384842,268.518890 130.578430,269.950470 127.772003,271.382080
	C126.426620,267.886505 125.081230,264.390930 123.640472,260.519287
z"/>
    <path fill="#1679ED" opacity="1.000000" stroke="none"
          d="
M68.858887,109.654022
	C71.583969,107.892876 74.329803,106.499908 77.427750,105.057434
	C78.879852,108.040489 79.979836,111.073051 80.845795,114.780457
	C77.646690,116.336784 74.681618,117.218262 71.716553,118.099747
	C70.770912,115.407227 69.825272,112.714706 68.858887,109.654022
z"/>
    <path fill="#CC0C36" opacity="1.000000" stroke="none"
          d="
M85.877365,226.682358
	C81.696732,228.828140 77.368423,230.667191 72.971252,232.874649
	C70.978699,231.455582 69.055008,229.668121 67.155762,227.248291
	C68.845886,225.684525 70.516731,224.762207 72.175949,223.819427
	C74.227478,222.653732 76.269363,221.471024 78.315414,220.295685
	C80.786835,222.322342 83.258263,224.348999 85.877365,226.682358
z"/>
    <path fill="#86167A" opacity="1.000000" stroke="none"
          d="
M234.800232,104.451004
	C238.575974,102.760529 242.427460,101.417793 246.648743,100.035004
	C248.198166,102.441170 249.377777,104.887390 250.250671,107.678459
	C246.148239,109.406715 242.352509,110.790115 238.556793,112.173515
	C237.329849,109.715263 236.102905,107.257011 234.800232,104.451004
z"/>
    <path fill="#F10712" opacity="1.000000" stroke="none"
          d="
M97.293915,249.194366
	C99.128654,244.066971 104.228279,244.668045 108.495712,243.008179
	C110.379662,246.837402 111.884804,250.673996 113.389946,254.510605
	C113.095909,254.872040 112.801865,255.233490 112.507828,255.594940
	C107.535233,253.529358 102.562637,251.463760 97.293915,249.194366
z"/>
    <path fill="#C30E40" opacity="1.000000" stroke="none"
          d="
M78.168945,220.026993
	C76.269363,221.471024 74.227478,222.653732 72.175949,223.819427
	C70.516731,224.762207 68.845886,225.684525 67.020065,226.953918
	C64.733421,225.181473 62.606907,223.071045 60.746132,220.489685
	C65.068481,218.654938 69.125092,217.291138 73.181702,215.927322
	C74.795296,217.204315 76.408882,218.481308 78.168945,220.026993
z"/>
    <path fill="#4E1DAF" opacity="1.000000" stroke="none"
          d="
M162.612808,191.190643
	C162.026871,192.366150 161.240387,193.905045 160.024185,194.410934
	C153.665741,197.055878 147.198227,199.438644 140.402115,201.951904
	C139.651001,201.288559 139.266418,200.585922 139.039856,199.237427
	C142.211685,197.330536 145.335861,196.275543 148.202713,194.740112
	C150.315430,193.608582 152.092010,191.849503 154.018356,190.370041
	C156.750244,190.605850 159.482117,190.841660 162.612808,191.190643
z"/>
    <path fill="#B9114A" opacity="1.000000" stroke="none"
          d="
M73.129440,215.577240
	C69.125092,217.291138 65.068481,218.654938 60.617020,220.161072
	C58.773785,218.463318 57.325397,216.623245 56.153046,214.304993
	C60.299664,212.211670 64.170242,210.596497 68.040817,208.981339
	C69.719604,211.063278 71.398392,213.145233 73.129440,215.577240
z"/>
    <path fill="#B70C47" opacity="1.000000" stroke="none"
          d="
M257.828461,140.003708
	C257.912262,142.377014 257.996033,144.750320 257.611023,147.569458
	C253.151855,149.010666 249.161514,150.006042 245.171158,151.001419
	C245.117157,148.628738 245.063156,146.256042 245.456573,143.435089
	C249.878830,141.992447 253.853638,140.998077 257.828461,140.003708
z"/>
    <path fill="#9A1366" opacity="1.000000" stroke="none"
          d="
M253.012695,114.994614
	C253.867905,117.753975 254.723114,120.513336 255.238617,123.637756
	C250.972656,125.002464 247.046387,126.002113 243.120132,127.001770
	C242.408798,124.589256 241.697464,122.176743 241.396240,119.375793
	C245.541809,117.656441 249.277252,116.325523 253.012695,114.994614
z"/>
    <path fill="#D40A2E" opacity="1.000000" stroke="none"
          d="
M255.908447,171.396027
	C251.234070,172.807587 246.659866,173.906342 241.701111,175.008667
	C241.971085,172.476547 242.625610,169.940857 243.963974,167.184845
	C248.731186,165.976273 252.814545,164.987991 256.897919,163.999710
	C256.601501,166.360870 256.305084,168.722046 255.908447,171.396027
z"/>
    <path fill="#AD0E52" opacity="1.000000" stroke="none"
          d="
M257.906921,139.594208
	C253.853638,140.998077 249.878830,141.992447 245.528275,142.995605
	C244.797104,140.602722 244.441650,138.201019 244.511673,135.392899
	C248.908768,133.991379 252.880386,132.996292 256.852020,132.001221
	C257.229797,134.395706 257.607574,136.790207 257.906921,139.594208
z"/>
    <path fill="#A4105B" opacity="1.000000" stroke="none"
          d="
M256.917236,131.596130
	C252.880386,132.996292 248.908768,133.991379 244.563782,134.995453
	C243.796005,132.603180 243.401581,130.201920 243.063644,127.401215
	C247.046387,126.002113 250.972656,125.002464 255.292953,124.001228
	C256.118805,126.396774 256.550629,128.793915 256.917236,131.596130
z"/>
    <path fill="#CA0834" opacity="1.000000" stroke="none"
          d="
M257.019318,163.615173
	C252.814545,164.987991 248.731186,165.976273 244.246674,166.954193
	C244.001480,164.468643 244.157425,161.993423 245.015472,159.250275
	C249.773438,157.990005 253.829330,156.997665 257.885223,156.005310
	C257.637054,158.413757 257.388885,160.822189 257.019318,163.615173
z"/>
    <path fill="#19A3E6" opacity="1.000000" stroke="none"
          d="
M170.873260,40.637779
	C167.749969,41.676155 164.655777,42.349400 161.152740,43.047878
	C159.812180,40.691532 158.880447,38.309952 157.914368,35.570431
	C160.682526,33.832870 163.485016,32.453251 166.656570,31.033459
	C168.317871,34.086407 169.610107,37.179531 170.873260,40.637779
z"/>
    <path fill="#93136C" opacity="1.000000" stroke="none"
          d="
M53.028969,181.940567
	C54.204201,184.403564 55.379436,186.866547 56.256660,189.677078
	C52.260712,191.767883 48.562778,193.511154 44.864845,195.254440
	C43.845325,192.796097 42.825809,190.337753 42.098152,187.361328
	C45.936337,185.209030 49.482655,183.574799 53.028969,181.940567
z"/>
    <path fill="#9E0F60" opacity="1.000000" stroke="none"
          d="
M44.892097,195.588394
	C48.562778,193.511154 52.260712,191.767883 56.320038,190.014526
	C57.759853,192.102966 58.838284,194.201462 59.529663,196.695831
	C55.331776,198.431473 51.520943,199.771225 47.710110,201.110992
	C46.779854,199.381439 45.849602,197.651901 44.892097,195.588394
z"/>
    <path fill="#82327E" opacity="1.000000" stroke="none"
          d="
M206.723694,169.103546
	C205.784012,166.725998 204.844330,164.348450 204.055176,161.273300
	C207.147202,159.380249 210.088699,158.184784 213.030182,156.989334
	C214.049255,160.043350 215.068344,163.097382 215.719910,166.562714
	C212.476151,167.683853 209.599915,168.393692 206.723694,169.103546
z"/>
    <path fill="#8F1470" opacity="1.000000" stroke="none"
          d="
M253.004486,114.616501
	C249.277252,116.325523 245.541809,117.656441 241.426544,118.993881
	C240.277374,116.965477 239.507996,114.930550 238.647705,112.534569
	C242.352509,110.790115 246.148239,109.406715 250.312546,108.013245
	C251.452835,110.081589 252.224548,112.159988 253.004486,114.616501
z"/>
    <path fill="#146EEE" opacity="1.000000" stroke="none"
          d="
M71.794586,118.469902
	C74.681618,117.218262 77.646690,116.336784 80.841293,115.160255
	C82.110672,117.454720 83.150520,120.044235 84.063316,123.337357
	C81.244667,125.781303 78.553070,127.521645 75.861465,129.261978
	C74.531853,125.788002 73.202232,122.314034 71.794586,118.469902
z"/>
    <path fill="#1464F0" opacity="1.000000" stroke="none"
          d="
M75.889275,129.617340
	C78.553070,127.521645 81.244667,125.781303 84.129280,123.685303
	C85.570984,126.632645 86.819672,129.935654 87.995552,133.621017
	C85.094864,134.999741 82.266968,135.996109 79.049156,137.044449
	C77.745178,134.721848 76.831131,132.347275 75.889275,129.617340
z"/>
    <path fill="#C30E40" opacity="1.000000" stroke="none"
          d="
M257.973846,155.567703
	C253.829330,156.997665 249.773438,157.990005 245.309448,158.973083
	C244.938950,156.600586 244.976578,154.237350 245.092682,151.437759
	C249.161514,150.006042 253.151855,149.010666 257.527649,148.007675
	C257.962891,150.376724 258.012665,152.753418 257.973846,155.567703
z"/>
    <path fill="#701B90" opacity="1.000000" stroke="none"
          d="
M35.043053,158.410080
	C38.910610,156.989044 42.702393,155.979141 46.900253,154.942352
	C47.558189,157.330215 47.810051,159.744949 47.611546,162.587296
	C43.475334,164.010757 39.789486,165.006622 36.103642,166.002472
	C35.724854,163.608719 35.346069,161.214966 35.043053,158.410080
z"/>
    <path fill="#76318B" opacity="1.000000" stroke="none"
          d="
M206.786942,169.479935
	C209.599915,168.393692 212.476151,167.683853 215.766754,166.956207
	C217.426147,169.712646 218.671188,172.486908 219.477020,175.630524
	C215.955338,176.692963 212.872818,177.386047 209.790314,178.079117
	C208.810272,175.338196 207.830231,172.597275 206.786942,169.479935
z"/>
    <path fill="#1464F0" opacity="1.000000" stroke="none"
          d="
M192.854462,100.633713
	C189.712875,101.662163 186.597641,102.321358 183.081543,103.036255
	C181.738235,100.676392 180.795776,98.260826 180.139877,95.332138
	C183.513443,93.882294 186.600433,92.945572 189.687439,92.008850
	C190.751892,94.760712 191.816345,97.512589 192.854462,100.633713
z"/>
    <path fill="#292DDB" opacity="1.000000" stroke="none"
          d="
M241.965286,235.628418
	C238.929352,236.974014 235.869247,237.944168 232.447754,238.959045
	C231.014175,236.276260 229.942001,233.548782 229.211456,230.424042
	C232.380493,228.660767 235.207886,227.294724 238.035294,225.928696
	C239.337234,229.036789 240.639175,232.144867 241.965286,235.628418
z"/>
    <path fill="#661A99" opacity="1.000000" stroke="none"
          d="
M238.009735,84.636116
	C234.215958,86.574150 230.375259,88.171997 226.195267,89.915054
	C224.323929,88.255096 222.791885,86.449928 221.210144,84.322235
	C225.190674,82.443474 229.220901,80.887230 233.573853,79.185501
	C235.251999,80.791985 236.607407,82.543953 238.009735,84.636116
z"/>
    <path fill="#492CB6" opacity="1.000000" stroke="none"
          d="
M129.204849,246.523773
	C126.295113,247.619797 123.347198,248.335953 119.973434,249.087067
	C118.648132,246.775391 117.748672,244.428741 117.033875,241.393402
	C120.201050,239.781906 123.183563,238.859131 126.166077,237.936340
	C127.166283,240.672195 128.166473,243.408035 129.204849,246.523773
z"/>
    <path fill="#1B2AE7" opacity="1.000000" stroke="none"
          d="
M146.126953,282.577393
	C142.916031,284.233826 139.627274,285.550690 135.988647,287.011200
	C134.052170,285.116974 132.465546,283.079102 131.040070,280.383331
	C134.116074,278.483154 137.030914,277.240875 139.945770,275.998596
	C141.980225,278.078339 144.014664,280.158051 146.126953,282.577393
z"/>
    <path fill="#A8125A" opacity="1.000000" stroke="none"
          d="
M47.777634,201.455551
	C51.520943,199.771225 55.331776,198.431473 59.496422,197.047028
	C60.942528,198.567642 62.034824,200.132950 63.034859,202.362137
	C59.207825,204.715271 55.473057,206.404510 51.738281,208.093750
	C50.440575,205.995865 49.142864,203.897995 47.777634,201.455551
z"/>
    <path fill="#AD0E52" opacity="1.000000" stroke="none"
          d="
M51.817532,208.428436
	C55.473057,206.404510 59.207825,204.715271 63.132774,202.662903
	C64.857666,204.302048 66.392380,206.304306 67.983948,208.643951
	C64.170242,210.596497 60.299664,212.211670 56.077568,213.974152
	C54.449623,212.335342 53.173203,210.549225 51.817532,208.428436
z"/>
    <path fill="#146EEE" opacity="1.000000" stroke="none"
          d="
M189.619431,91.666260
	C186.600433,92.945572 183.513443,93.882294 180.078552,94.962341
	C178.789169,92.725395 177.847687,90.345139 176.888489,87.603668
	C179.679260,85.853470 182.487747,84.464470 185.670441,83.036034
	C187.213577,85.772285 188.382507,88.547981 189.619431,91.666260
z"/>
    <path fill="#2128DE" opacity="1.000000" stroke="none"
          d="
M139.996826,275.627930
	C137.030914,277.240875 134.116074,278.483154 131.012238,280.048767
	C129.817169,277.620483 128.811066,274.868835 127.788483,271.749634
	C130.578430,269.950470 133.384842,268.518890 136.551208,267.045654
	C137.956741,269.755066 139.002319,272.506134 139.996826,275.627930
z"/>
    <path fill="#C7976B" opacity="1.000000" stroke="none"
          d="
M193.756744,223.707397
	C193.107544,225.030273 192.402573,226.550446 191.287125,226.964325
	C182.853622,230.093613 174.339584,233.005814 165.465744,235.992615
	C164.779709,235.324387 164.478592,234.649323 164.659653,233.552414
	C171.941025,230.814133 178.763626,228.561523 185.505859,226.089706
	C186.237900,225.821335 186.505585,224.286392 186.988663,223.338943
	C189.162735,223.356750 191.336807,223.374542 193.756744,223.707397
z"/>
    <path fill="#90A8B6" opacity="1.000000" stroke="none"
          d="
M199.998550,243.964432
	C197.296707,244.000885 194.594864,244.037323 191.508987,243.667404
	C191.755112,242.798782 192.321350,242.170593 193.025146,241.899551
	C201.680130,238.566299 210.355209,235.285294 219.025116,231.990814
	C219.350967,232.766663 219.676819,233.542511 219.683228,234.800323
	C216.128799,236.508316 212.826767,237.585190 209.677216,239.001282
	C206.374771,240.486160 203.218643,242.296402 199.998550,243.964432
z"/>
    <path fill="#8D3372" opacity="1.000000" stroke="none"
          d="
M212.994446,156.620682
	C210.088699,158.184784 207.147202,159.380249 204.041702,160.911957
	C202.578247,158.423782 201.278809,155.599380 199.798935,152.459625
	C202.828674,151.094635 206.038849,150.044968 209.646790,148.991089
	C211.015930,151.408600 211.987320,153.830322 212.994446,156.620682
z"/>
    <path fill="#302BD6" opacity="1.000000" stroke="none"
          d="
M56.709568,99.646194
	C52.821865,100.997726 48.874149,101.990410 44.541386,102.993217
	C46.729996,97.902161 49.303658,92.800964 52.307888,86.846344
	C54.002636,91.702629 55.326096,95.494987 56.709568,99.646194
z"/>
    <path fill="#82177F" opacity="1.000000" stroke="none"
          d="
M49.070755,168.860840
	C49.723778,170.969345 50.376797,173.077835 50.793602,175.850342
	C46.729202,177.676697 42.901020,178.839081 39.072834,180.001450
	C38.416252,177.980347 37.759674,175.959244 37.579079,173.490952
	C41.726963,171.649460 45.398861,170.255142 49.070755,168.860840
z"/>
    <path fill="#8A1575" opacity="1.000000" stroke="none"
          d="
M39.042011,180.363800
	C42.901020,178.839081 46.729202,177.676697 50.791222,176.233231
	C51.690800,177.703629 52.356541,179.455139 53.025627,181.573608
	C49.482655,183.574799 45.936337,185.209030 42.033958,186.989075
	C40.788998,184.998657 39.900093,182.862396 39.042011,180.363800
z"/>
    <path fill="#99A5A8" opacity="1.000000" stroke="none"
          d="
M219.013016,231.653244
	C210.355209,235.285294 201.680130,238.566299 193.025146,241.899551
	C192.321350,242.170593 191.755112,242.798782 191.061890,243.609283
	C189.575912,243.666962 188.152985,243.376389 186.363708,243.024078
	C189.355682,241.259216 192.620743,239.329636 196.091858,237.900391
	C203.203568,234.972137 210.425842,232.312332 217.810593,229.259644
	C218.346024,229.756775 218.673477,230.536224 219.013016,231.653244
z"/>
    <path fill="#462DBB" opacity="1.000000" stroke="none"
          d="
M229.874680,204.002747
	C230.919968,206.409714 231.965240,208.816681 232.638702,211.614700
	C229.465698,213.422104 226.664505,214.838470 223.863312,216.254822
	C222.888153,213.823242 221.912979,211.391663 221.070007,208.267303
	C224.093033,206.383926 226.983856,205.193344 229.874680,204.002747
z"/>
    <path fill="#7A1885" opacity="1.000000" stroke="none"
          d="
M49.077148,168.476669
	C45.398861,170.255142 41.726963,171.649460 37.621330,173.078766
	C36.784473,170.993958 36.381359,168.874130 36.040939,166.378387
	C39.789486,165.006622 43.475334,164.010757 47.547058,163.008133
	C48.316467,164.698410 48.700005,166.395447 49.077148,168.476669
z"/>
    <path fill="#BC0A42" opacity="1.000000" stroke="none"
          d="
M128.419830,119.041321
	C128.738708,117.979881 129.295135,116.503937 130.263199,116.148186
	C138.855667,112.990608 147.521027,110.031349 156.550980,107.006004
	C157.310593,107.691406 157.684082,108.384384 157.554352,109.496696
	C150.369568,112.122055 143.666855,114.268059 137.032379,116.607597
	C136.171814,116.911041 135.663483,118.213379 134.992004,119.053024
	C132.944077,119.084106 130.896164,119.115196 128.419830,119.041321
z"/>
    <path fill="#3530D6" opacity="1.000000" stroke="none"
          d="
M195.902496,48.256714
	C193.016693,50.184322 189.850784,51.937412 186.363586,53.838299
	C184.613388,50.593658 183.184433,47.201218 181.755493,43.808773
	C182.058105,43.373371 182.360718,42.937965 182.663330,42.502563
	C186.983017,44.362438 191.302704,46.222317 195.902496,48.256714
z"/>
    <path fill="#3B2BC3" opacity="1.000000" stroke="none"
          d="
M223.876892,216.604767
	C226.664505,214.838470 229.465698,213.422104 232.652664,211.996536
	C234.015823,214.413055 234.993179,216.838806 235.517151,219.634338
	C232.065567,220.671234 229.067368,221.338333 226.069183,222.005432
	C225.342957,220.321854 224.616714,218.638275 223.876892,216.604767
z"/>
    <path fill="#81AECD" opacity="1.000000" stroke="none"
          d="
M116.420212,87.023598
	C117.168480,85.996529 118.195618,84.600471 119.544754,84.132248
	C124.037148,82.573158 128.645096,81.347084 133.613617,79.987579
	C134.645630,81.100227 135.272781,82.218666 135.501663,83.674683
	C132.732361,85.333458 130.361313,86.654648 127.990288,87.975845
	C124.275719,87.677124 120.561157,87.378395 116.420212,87.023598
z"/>
    <path fill="#2E2AD2" opacity="1.000000" stroke="none"
          d="
M226.036224,222.375778
	C229.067368,221.338333 232.065567,220.671234 235.454712,220.003998
	C236.573380,221.736160 237.301102,223.468475 238.032074,225.564743
	C235.207886,227.294724 232.380493,228.660767 229.159149,230.050903
	C227.844559,227.632034 226.923904,225.189072 226.036224,222.375778
z"/>
    <path fill="#C70A38" opacity="1.000000" stroke="none"
          d="
M185.417038,214.067871
	C185.683624,213.135162 186.217392,211.854630 187.098068,211.537506
	C194.355209,208.924286 201.676743,206.489853 209.366013,203.997238
	C209.891052,204.717606 210.028824,205.441986 209.803986,206.566010
	C205.880005,208.178070 202.238586,209.202393 198.786728,210.671921
	C196.645020,211.583694 194.790817,213.170868 192.807556,214.454865
	C190.486710,214.358765 188.165863,214.262650 185.417038,214.067871
z"/>
    <path fill="#542CAB" opacity="1.000000" stroke="none"
          d="
M126.142319,237.566269
	C123.183563,238.859131 120.201050,239.781906 117.018982,241.034668
	C115.809319,238.869553 114.799202,236.374466 114.063919,233.370209
	C117.208855,231.906387 120.078949,230.951736 122.949036,229.997070
	C124.005547,232.396790 125.062050,234.796494 126.142319,237.566269
z"/>
    <path fill="#502EB1" opacity="1.000000" stroke="none"
          d="
M229.937653,203.628479
	C226.983856,205.193344 224.093033,206.383926 221.041351,207.905975
	C219.862183,205.442825 218.843842,202.648224 218.160309,199.444702
	C221.573547,198.359299 224.651993,197.682800 227.730438,197.006302
	C228.487167,199.088928 229.243881,201.171555 229.937653,203.628479
z"/>
    <path fill="#792F84" opacity="1.000000" stroke="none"
          d="
M112.818878,201.013641
	C113.598351,203.390701 114.377823,205.767776 114.782578,208.554871
	C111.481651,209.687225 108.555450,210.409531 105.629250,211.131836
	C104.750244,208.992004 103.871239,206.852188 103.380028,204.312042
	C106.784836,202.945709 109.801857,201.979675 112.818878,201.013641
z"/>
    <path fill="#6B3095" opacity="1.000000" stroke="none"
          d="
M209.851440,178.446167
	C212.872818,177.386047 215.955338,176.692963 219.441223,176.000381
	C220.571777,177.738373 221.298935,179.475845 221.806030,181.858093
	C218.684982,183.741653 215.783966,184.980453 212.882950,186.219269
	C211.892822,183.750595 210.902695,181.281906 209.851440,178.446167
z"/>
    <path fill="#702F8E" opacity="1.000000" stroke="none"
          d="
M105.713005,211.493317
	C108.555450,210.409531 111.481651,209.687225 114.826569,208.941986
	C116.196228,211.019958 117.147171,213.120880 117.730659,215.605286
	C114.453094,217.044617 111.542984,218.100464 108.632874,219.156311
	C107.687500,216.722473 106.742134,214.288635 105.713005,211.493317
z"/>
    <path fill="#622F9F" opacity="1.000000" stroke="none"
          d="
M212.912384,186.585785
	C215.783966,184.980453 218.684982,183.741653 221.810486,182.220062
	C223.024811,184.371552 224.014664,186.805801 224.614395,189.618317
	C221.333099,191.307251 218.441895,192.617950 215.550690,193.928650
	C214.681076,191.603195 213.811447,189.277740 212.912384,186.585785
z"/>
    <path fill="#6B3095" opacity="1.000000" stroke="none"
          d="
M108.708755,219.520554
	C111.542984,218.100464 114.453094,217.044617 117.758209,215.970612
	C119.009300,218.068069 119.865387,220.183685 120.398102,222.656067
	C117.067345,224.006607 114.059975,225.000366 111.052597,225.994141
	C110.296608,223.957687 109.540619,221.921234 108.708755,219.520554
z"/>
    <path fill="#CA0834" opacity="1.000000" stroke="none"
          d="
M135.367493,119.182281
	C135.663483,118.213379 136.171814,116.911041 137.032379,116.607597
	C143.666855,114.268059 150.369568,112.122055 157.508179,109.895943
	C158.324768,110.424515 158.684296,110.973183 158.614838,111.805527
	C154.514053,113.419106 150.756607,114.558510 147.204773,116.155289
	C145.286377,117.017731 143.719452,118.661949 141.993958,119.953468
	C139.910294,119.739494 137.826630,119.525520 135.367493,119.182281
z"/>
    <path fill="#592FA8" opacity="1.000000" stroke="none"
          d="
M215.656876,194.220627
	C218.441895,192.617950 221.333099,191.307251 224.629272,189.992767
	C225.893250,192.097839 226.752258,194.206711 227.670868,196.660950
	C224.651993,197.682800 221.573547,198.359299 218.086304,199.066315
	C217.039352,197.568756 216.401215,196.040680 215.656876,194.220627
z"/>
    <path fill="#622F9F" opacity="1.000000" stroke="none"
          d="
M111.080338,226.348785
	C114.059975,225.000366 117.067345,224.006607 120.446503,223.003876
	C121.576385,225.081100 122.334496,227.167313 123.020821,229.625305
	C120.078949,230.951736 117.208855,231.906387 113.977097,233.004364
	C112.779648,230.999603 111.943863,228.851517 111.080338,226.348785
z"/>
    <path fill="#E28E45" opacity="1.000000" stroke="none"
          d="
M87.536369,65.134903
	C86.135963,66.721413 84.414391,68.437340 82.391541,69.651184
	C80.615639,70.716835 78.502045,71.219719 76.153000,72.028290
	C74.633995,69.246048 73.499596,66.406677 72.481682,63.858887
	C77.416275,64.260078 82.250259,64.653084 87.536369,65.134903
z"/>
    <path fill="#CF935B" opacity="1.000000" stroke="none"
          d="
M186.579681,223.253357
	C186.505585,224.286392 186.237900,225.821335 185.505859,226.089706
	C178.763626,228.561523 171.941025,230.814133 164.675842,233.178589
	C164.032059,233.059036 163.925140,232.854401 164.072357,232.123596
	C166.916870,230.444824 169.613464,229.327301 172.230545,228.047211
	C175.520050,226.438217 178.744446,224.696106 181.996948,223.011444
	C183.388199,223.063553 184.779449,223.115662 186.579681,223.253357
z"/>
    <path fill="#4733CB" opacity="1.000000" stroke="none"
          d="
M97.617981,95.264244
	C94.314125,97.242378 90.580223,99.108757 86.462967,100.983528
	C85.274849,98.955185 84.470078,96.918442 83.278465,93.902664
	C88.587891,94.379738 92.887917,94.766113 97.617981,95.264244
z"/>
    <path fill="#D5082B" opacity="1.000000" stroke="none"
          d="
M193.117676,214.726089
	C194.790817,213.170868 196.645020,211.583694 198.786728,210.671921
	C202.238586,209.202393 205.880005,208.178070 209.841156,206.936386
	C210.813507,207.731201 211.386047,208.555298 211.552277,209.739014
	C207.758896,211.743332 204.371811,213.388046 200.984741,215.032761
	C198.465759,215.020935 195.946793,215.009125 193.117676,214.726089
z"/>
    <path fill="#E28E45" opacity="1.000000" stroke="none"
          d="
M162.567657,229.967957
	C161.498459,227.216888 160.429245,224.465820 158.927567,220.601974
	C163.871429,221.214096 168.139771,221.742584 172.707504,222.743744
	C171.352783,224.305237 169.705734,225.405014 168.042618,226.479980
	C166.225357,227.654602 164.393280,228.806290 162.567657,229.967957
z"/>
    <path fill="#D79255" opacity="1.000000" stroke="none"
          d="
M162.656342,230.220062
	C164.393280,228.806290 166.225357,227.654602 168.042618,226.479980
	C169.705734,225.405014 171.352783,224.305237 173.087952,222.806046
	C175.955154,222.392166 178.741302,222.388626 181.762207,222.698273
	C178.744446,224.696106 175.520050,226.438217 172.230545,228.047211
	C169.613464,229.327301 166.916870,230.444824 164.056458,231.946655
	C163.486588,231.663254 163.115814,231.067719 162.656342,230.220062
z"/>
    <path fill="#89ABC1" opacity="1.000000" stroke="none"
          d="
M200.270813,244.106506
	C203.218643,242.296402 206.374771,240.486160 209.677216,239.001282
	C212.826767,237.585190 216.128799,236.508316 219.695450,235.136475
	C220.564484,235.798828 221.101883,236.607025 221.341095,237.762207
	C217.794113,239.198563 214.465851,240.102249 211.325897,241.445984
	C209.399750,242.270264 207.762085,243.768600 205.994873,244.964264
	C204.177612,244.725693 202.360352,244.487137 200.270813,244.106506
z"/>
    <path fill="#4921B8" opacity="1.000000" stroke="none"
          d="
M153.593948,190.258057
	C152.092010,191.849503 150.315430,193.608582 148.202713,194.740112
	C145.335861,196.275543 142.211685,197.330536 139.032303,198.931778
	C138.295334,198.080338 137.723953,196.888718 137.491165,195.305603
	C140.900055,193.258484 143.970352,191.602829 147.040634,189.947174
	C149.083603,190.013489 151.126572,190.079788 153.593948,190.258057
z"/>
    <path fill="#D5082B" opacity="1.000000" stroke="none"
          d="
M142.400269,120.060181
	C143.719452,118.661949 145.286377,117.017731 147.204773,116.155289
	C150.756607,114.558510 154.514053,113.419106 158.548767,112.046249
	C159.313568,112.760963 159.715469,113.518631 159.790741,114.751808
	C155.853424,116.865585 152.242737,118.503860 148.632034,120.142136
	C146.690216,120.150375 144.748398,120.158630 142.400269,120.060181
z"/>
    <path fill="#E8071B" opacity="1.000000" stroke="none"
          d="
M201.356567,215.167084
	C204.371811,213.388046 207.758896,211.743332 211.509521,210.052902
	C212.628922,211.799500 213.384796,213.591797 214.564011,216.387970
	C209.874847,215.991013 205.801620,215.646210 201.356567,215.167084
z"/>
    <path fill="#873A83" opacity="1.000000" stroke="none"
          d="
M112.763153,200.646088
	C109.801857,201.979675 106.784836,202.945709 103.404739,203.952347
	C102.241493,201.929565 101.441330,199.866196 100.415474,197.220810
	C105.376129,197.184128 109.589561,196.406937 112.763153,200.646088
z"/>
    <path fill="#E8071B" opacity="1.000000" stroke="none"
          d="
M148.922974,120.485245
	C152.242737,118.503860 155.853424,116.865585 159.808762,115.081001
	C160.951447,116.756157 161.749496,118.577621 163.004761,121.442665
	C157.609192,121.202324 153.411560,121.015343 148.922974,120.485245
z"/>
    <path fill="#81AECD" opacity="1.000000" stroke="none"
          d="
M206.424149,245.020599
	C207.762085,243.768600 209.399750,242.270264 211.325897,241.445984
	C214.465851,240.102249 217.794113,239.198563 221.396744,238.055328
	C221.830978,238.438446 221.911423,238.875458 221.834045,239.965057
	C218.747070,242.149719 215.817902,243.681793 212.888733,245.213867
	C210.876968,245.168243 208.865189,245.122604 206.424149,245.020599
z"/>
    <path fill="#4733CB" opacity="1.000000" stroke="none"
          d="
M146.764008,189.629730
	C143.970352,191.602829 140.900055,193.258484 137.475143,194.965790
	C136.400101,193.234467 135.679688,191.451477 134.815338,189.312271
	C139.030289,189.312271 142.758835,189.312271 146.764008,189.629730
z"/>
    <path fill="#76B3DF" opacity="1.000000" stroke="none"
          d="
M213.182358,245.515564
	C215.817902,243.681793 218.747070,242.149719 221.847458,240.299652
	C222.861328,241.849182 223.703979,243.716690 224.651794,245.817261
	C220.590485,245.817261 217.033234,245.817261 213.182358,245.515564
z"/>
    <path fill="#76B3DF" opacity="1.000000" stroke="none"
          d="
M128.405441,88.031860
	C130.361313,86.654648 132.732361,85.333458 135.473648,84.004364
	C136.530411,85.425865 137.216919,86.855270 138.398560,89.315613
	C134.626068,88.832047 131.723343,88.459969 128.405441,88.031860
z"/>
    <path fill="#1228FA" opacity="1.000000" stroke="none"
          d="
M183.788239,163.715973
	C182.718719,164.028931 181.442917,164.043076 180.074890,163.751251
	C181.182434,163.435898 182.382202,163.426514 183.788239,163.715973
z"/>
</svg>